<?xml version="1.0" standalone="no"?>
<!DOCTYPE svg PUBLIC "-//W3C//DTD SVG 20010904//EN"
 "http://www.w3.org/TR/2001/REC-SVG-20010904/DTD/svg10.dtd">
<svg version="1.0" xmlns="http://www.w3.org/2000/svg"
 width="512.000000pt" height="512.000000pt" viewBox="0 0 512.000000 512.000000"
 preserveAspectRatio="xMidYMid meet">

<g transform="translate(0.000000,512.000000) scale(0.100000,-0.100000)"
fill="#000000" stroke="none">
<path d="M2468 4784 c-48 -26 -58 -59 -58 -204 l0 -130 -150 0 c-168 0 -198
-8 -225 -60 -8 -16 -15 -50 -15 -75 0 -25 7 -59 15 -75 27 -52 57 -60 225 -60
l150 0 0 -187 -1 -188 -21 30 c-38 53 -128 132 -187 163 -181 97 -461 119
-616 48 -205 -94 -289 -352 -197 -603 17 -46 39 -95 50 -110 10 -16 21 -35 24
-43 9 -24 125 -179 190 -252 33 -38 58 -68 55 -68 -29 0 -186 -34 -207 -45
-37 -19 -40 -30 -40 -151 0 -103 0 -104 28 -117 56 -29 235 -55 485 -72 l98
-7 -6 -71 c-14 -165 -47 -482 -50 -487 -2 -3 -6 -30 -10 -60 -8 -71 -51 -266
-77 -350 -37 -120 -98 -263 -191 -447 l-91 -183 -174 0 c-109 0 -190 -5 -216
-12 -53 -16 -118 -81 -134 -134 -16 -53 -16 -185 0 -238 16 -53 81 -118 134
-134 60 -18 2508 -18 2568 0 53 16 118 81 134 134 6 23 12 76 12 119 0 102
-16 151 -65 200 -56 56 -94 65 -284 65 l-161 0 -108 218 c-210 424 -251 602
-315 1348 l-3 31 176 12 c218 15 372 37 428 61 l43 19 -3 118 -3 117 -31 18
c-17 10 -78 25 -135 35 -57 9 -107 19 -111 22 -5 4 21 41 56 84 197 236 268
387 269 572 1 121 -16 185 -73 271 -48 73 -120 126 -211 156 -90 29 -271 28
-384 -1 -150 -40 -271 -111 -341 -200 l-34 -44 0 181 0 182 140 0 c157 0 189
9 215 60 19 37 19 113 0 150 -26 51 -58 60 -215 60 l-140 0 0 130 c0 146 -10
179 -60 205 -37 19 -117 19 -152 -1z m110 -86 c8 -8 12 -62 12 -175 l0 -163
173 0 c182 0 197 -4 197 -45 0 -41 -15 -45 -197 -45 l-173 0 -2 -637 -3 -638
-40 0 -40 0 -3 638 -2 637 -183 0 c-192 0 -207 3 -207 45 0 42 15 45 207 45
l183 0 0 163 c0 171 4 187 45 187 12 0 26 -5 33 -12z m-578 -724 c172 -42 279
-129 368 -299 50 -95 52 -103 52 -177 0 -42 -4 -79 -9 -82 -5 -4 -33 24 -62
61 -190 243 -354 336 -529 301 -118 -24 -193 -121 -174 -226 20 -109 143 -291
337 -500 30 -33 46 -57 40 -63 -5 -5 -49 -11 -98 -15 l-90 -5 -92 109 c-252
300 -330 470 -293 648 16 77 39 120 89 171 97 97 264 124 461 77z m1399 0
c150 -42 231 -159 231 -334 0 -166 -76 -313 -290 -562 l-92 -107 -96 6 c-53 3
-100 8 -104 12 -4 3 34 51 83 106 209 233 299 378 299 486 0 149 -147 228
-343 185 -94 -21 -238 -134 -349 -273 -27 -35 -54 -61 -59 -57 -5 3 -9 39 -9
80 0 67 4 84 36 147 90 179 191 262 372 307 97 24 245 26 321 4z m-1407 -304
c96 -36 199 -137 344 -338 l74 -102 0 -115 0 -116 -127 3 -127 3 -109 120
c-201 222 -307 380 -307 458 0 92 124 135 252 87z m1247 9 c58 -12 101 -54
101 -98 0 -74 -110 -234 -320 -465 l-105 -115 -117 0 -118 -1 0 128 0 127 82
110 c142 189 249 282 357 311 59 16 60 16 120 3z m-214 -799 c230 -11 406 -27
491 -43 l59 -12 0 -45 0 -45 -59 -12 c-350 -69 -1542 -69 -1892 0 l-59 12 0
45 0 45 60 12 c223 44 930 66 1400 43z m-83 -357 c4 -27 14 -129 23 -228 44
-495 115 -766 302 -1138 46 -92 81 -172 78 -177 -6 -10 -1577 -15 -1587 -5 -2
3 32 79 77 170 80 160 152 339 195 480 50 168 96 465 120 785 7 80 13 150 14
155 2 6 138 9 387 8 l384 -3 7 -47z m888 -1668 c38 -37 54 -92 47 -173 -4 -52
-10 -69 -33 -93 -15 -16 -45 -34 -65 -39 -24 -7 -471 -9 -1267 -8 l-1231 3
-31 30 c-38 37 -54 92 -47 173 4 52 10 69 33 93 16 16 42 34 59 38 17 5 567 9
1267 8 l1237 -2 31 -30z"/>
<path d="M1650 3301 c0 -20 204 -281 220 -281 5 0 13 8 18 17 8 13 -11 43 -91
142 -56 69 -106 129 -111 133 -19 14 -36 8 -36 -11z"/>
<path d="M2312 2393 c-5 -10 -12 -73 -16 -141 -20 -371 -71 -600 -211 -953
-68 -171 -75 -199 -50 -199 22 0 38 31 108 210 125 318 170 511 197 850 6 74
10 159 8 189 -3 56 -20 76 -36 44z"/>
</g>
</svg>
