<?xml version="1.0" standalone="no"?>
<!DOCTYPE svg PUBLIC "-//W3C//DTD SVG 20010904//EN"
 "http://www.w3.org/TR/2001/REC-SVG-20010904/DTD/svg10.dtd">
<svg version="1.0" xmlns="http://www.w3.org/2000/svg"
 width="512.000000pt" height="512.000000pt" viewBox="0 0 512.000000 512.000000"
 preserveAspectRatio="xMidYMid meet">
<metadata>
Created by potrace 1.16, written by Peter Selinger 2001-2019
</metadata>
<g transform="translate(0.000000,512.000000) scale(0.100000,-0.100000)"
fill="#000000" stroke="none">
<path d="M2493 4550 c-50 -10 -81 -26 -107 -52 -18 -19 -18 -20 4 -43 31 -33
146 -59 220 -50 62 8 128 34 149 59 12 14 11 19 -3 35 -19 21 -47 32 -119 50
-53 12 -83 13 -144 1z"/>
<path d="M2449 4273 c-24 -32 -74 -103 -110 -158 -90 -138 -102 -156 -116
-185 -7 -14 -17 -32 -22 -40 -16 -24 -61 -126 -61 -137 0 -6 -7 -24 -15 -39
-21 -42 -19 -117 6 -172 26 -57 58 -100 124 -165 l49 -50 270 0 269 0 79 82
c55 58 81 94 89 124 7 23 16 46 21 52 11 12 10 92 -1 99 -5 4 -12 24 -16 46
-7 41 -86 204 -112 230 -13 13 -18 11 -44 -20 -17 -19 -59 -65 -94 -102 l-63
-68 -60 0 c-55 0 -62 3 -86 31 -19 23 -26 42 -26 74 0 47 4 52 163 229 l69 75
-33 48 c-66 98 -73 103 -159 103 l-77 0 -44 -57z m94 -87 c-3 -6 -31 -47 -61
-91 -86 -125 -87 -127 -124 -185 -88 -139 -119 -237 -99 -316 12 -46 54 -118
85 -143 20 -17 21 -51 2 -51 -19 0 -89 82 -116 138 -19 37 -22 56 -18 121 4
66 11 88 50 166 55 109 164 278 237 367 18 22 26 26 37 17 8 -6 11 -16 7 -23z"/>
<path d="M2314 3207 c-3 -8 -4 -49 -2 -93 l3 -79 245 0 245 0 0 90 0 90 -243
3 c-197 2 -243 0 -248 -11z"/>
<path d="M2307 2764 c-4 -4 -7 -38 -7 -76 0 -37 -4 -76 -9 -86 -5 -9 -14 -117
-20 -240 -5 -123 -14 -229 -19 -235 -5 -7 -15 -63 -21 -126 -6 -62 -15 -119
-19 -125 -5 -6 -14 -44 -21 -84 -7 -40 -20 -87 -28 -103 -11 -21 -12 -34 -5
-41 11 -11 788 -15 799 -4 3 3 1 11 -4 18 -6 7 -16 42 -23 78 -6 36 -16 70
-21 76 -4 6 -14 55 -20 110 -6 54 -15 104 -19 109 -10 13 -30 207 -30 292 0
35 -4 71 -10 81 -5 9 -13 94 -17 187 l-8 170 -246 3 c-135 1 -248 -1 -252 -4z"/>
<path d="M2210 1563 c-25 -2 -49 -8 -54 -14 -6 -5 -37 -9 -69 -9 -44 0 -67 -5
-90 -22 -42 -29 -47 -37 -47 -76 0 -38 47 -89 90 -98 14 -3 33 -10 43 -15 35
-19 461 -31 706 -21 126 6 237 15 248 20 10 5 30 15 45 22 35 17 78 81 78 118
0 44 -25 59 -113 65 -43 3 -85 12 -94 19 -13 10 -90 13 -357 14 -188 1 -361 0
-386 -3z"/>
<path d="M1874 1188 c-49 -51 -119 -116 -154 -145 -36 -28 -81 -68 -100 -88
l-35 -36 28 -25 28 -24 939 0 c931 0 939 0 950 20 6 11 7 26 3 34 -9 14 -139
126 -148 126 -3 0 -50 44 -104 98 -137 136 -138 137 -153 124 -17 -13 -134
-30 -228 -32 -41 0 -80 -6 -86 -11 -7 -6 -109 -8 -265 -5 -319 5 -551 25 -565
47 -10 17 -20 9 -110 -83z m166 -21 c0 -23 -40 -86 -89 -141 -30 -33 -168
-126 -187 -126 -40 0 -17 36 46 73 60 34 123 96 167 163 38 57 63 69 63 31z"/>
<path d="M1581 784 c-30 -16 -61 -76 -61 -121 0 -18 11 -51 25 -73 l25 -40
990 0 990 0 25 40 c42 67 23 180 -32 188 -11 2 -58 -17 -104 -41 -112 -59
-240 -92 -331 -83 -37 3 -150 27 -250 53 -282 71 -354 70 -607 -13 -207 -68
-303 -70 -445 -9 -48 21 -113 54 -144 75 -51 32 -60 35 -81 24z"/>
<path d="M1860 794 c-8 -3 -21 -8 -29 -10 -22 -7 6 -33 45 -40 19 -3 37 -10
40 -15 7 -12 161 -11 169 1 3 5 28 12 55 16 47 6 81 26 63 37 -12 8 -326 18
-343 11z"/>
</g>
</svg>
