<?xml version="1.0" standalone="no"?>
<!DOCTYPE svg PUBLIC "-//W3C//DTD SVG 20010904//EN"
 "http://www.w3.org/TR/2001/REC-SVG-20010904/DTD/svg10.dtd">
<svg version="1.0" xmlns="http://www.w3.org/2000/svg"
 width="512.000000pt" height="512.000000pt" viewBox="0 0 512.000000 512.000000"
 preserveAspectRatio="xMidYMid meet">
<metadata>
Created by potrace 1.16, written by Peter Selinger 2001-2019
</metadata>
<g transform="translate(0.000000,512.000000) scale(0.100000,-0.100000)"
fill="#000000" stroke="none">
<path d="M2461 4786 c-43 -24 -50 -51 -51 -198 l0 -138 -155 0 c-98 0 -164 -4
-180 -12 -37 -17 -55 -57 -55 -123 0 -66 18 -106 55 -123 16 -8 82 -12 180
-12 l155 0 0 -180 0 -181 -61 66 c-76 80 -147 125 -270 166 -80 27 -113 33
-219 37 -75 3 -147 0 -180 -7 -192 -40 -314 -184 -333 -396 -6 -59 17 -210 34
-231 6 -8 8 -14 5 -14 -4 0 -1 -12 7 -27 71 -143 109 -200 224 -340 77 -94 82
-103 61 -107 -13 -3 -52 -10 -88 -16 -74 -14 -115 -32 -124 -55 -3 -9 -6 -63
-6 -121 0 -103 0 -104 28 -117 56 -29 235 -55 485 -72 l98 -7 -6 -71 c-14
-165 -47 -482 -50 -487 -2 -3 -6 -30 -10 -60 -8 -71 -51 -266 -77 -350 -37
-120 -98 -263 -191 -447 l-91 -183 -174 0 c-109 0 -190 -5 -216 -12 -53 -16
-118 -81 -134 -134 -16 -53 -16 -185 0 -238 16 -53 81 -118 134 -134 60 -18
2508 -18 2568 0 53 16 118 81 134 134 6 23 12 76 12 119 0 102 -16 151 -65
200 -56 56 -94 65 -284 65 l-161 0 -108 218 c-210 424 -251 602 -315 1348 l-3
31 176 12 c218 15 372 37 428 61 l43 19 -3 118 -3 117 -31 18 c-16 10 -75 25
-130 34 -54 8 -105 17 -112 20 -8 2 11 31 49 76 189 224 267 380 276 553 9
158 -35 285 -127 369 -47 41 -130 93 -130 80 0 -4 -6 -2 -12 4 -34 27 -251 38
-353 18 -152 -31 -265 -87 -357 -177 l-68 -66 0 173 0 174 145 0 c160 0 192 8
213 55 16 36 15 130 -2 164 -23 44 -53 51 -211 51 l-145 0 0 135 c0 147 -8
178 -51 201 -35 18 -136 18 -168 0z m117 -88 c8 -8 12 -62 12 -175 l0 -163
173 0 c182 0 197 -4 197 -45 0 -41 -15 -45 -197 -45 l-173 0 -2 -637 -3 -638
-40 0 -40 0 -3 638 -2 637 -183 0 c-192 0 -207 3 -207 45 0 42 15 45 207 45
l183 0 0 163 c0 171 4 187 45 187 12 0 26 -5 33 -12z m-578 -724 c172 -42 279
-129 368 -299 50 -95 52 -103 52 -177 0 -42 -4 -79 -9 -82 -5 -4 -33 24 -62
61 -190 243 -354 336 -529 301 -118 -24 -193 -121 -174 -226 18 -97 118 -252
288 -446 53 -61 92 -114 88 -118 -4 -4 -48 -10 -97 -14 l-90 -5 -92 109 c-252
300 -330 470 -293 648 16 77 39 120 89 171 97 97 264 124 461 77z m1399 0
c150 -42 231 -159 231 -334 0 -166 -76 -313 -290 -562 l-92 -107 -96 6 c-53 3
-100 8 -104 12 -4 3 34 51 83 106 209 233 299 378 299 486 0 149 -147 228
-343 185 -94 -21 -238 -134 -349 -273 -27 -35 -54 -61 -59 -57 -5 3 -9 39 -9
80 0 67 4 84 36 147 90 179 191 262 372 307 97 24 245 26 321 4z m-1380 -320
c73 -36 174 -137 285 -286 47 -64 91 -120 96 -123 6 -4 10 -59 10 -126 l0
-119 -123 0 -123 0 -96 108 c-228 254 -328 402 -328 482 0 28 48 79 83 90 50
15 134 4 196 -26z m1261 7 c47 -24 64 -60 51 -106 -25 -91 -111 -210 -308
-427 l-115 -128 -114 0 -114 0 0 125 0 125 77 102 c113 150 226 261 304 298
78 36 163 41 219 11z m-255 -781 c230 -11 406 -27 491 -43 l59 -12 0 -45 0
-45 -59 -12 c-350 -69 -1542 -69 -1892 0 l-59 12 0 45 0 45 60 12 c223 44 930
66 1400 43z m-83 -357 c4 -27 14 -129 23 -228 44 -495 115 -766 302 -1138 46
-92 81 -172 78 -177 -6 -10 -1577 -15 -1587 -5 -2 3 32 79 77 170 80 160 152
339 195 480 50 168 96 465 120 785 7 80 13 150 14 155 2 6 138 9 387 8 l384
-3 7 -47z m888 -1668 c38 -37 54 -92 47 -173 -4 -52 -10 -69 -33 -93 -15 -16
-45 -34 -65 -39 -24 -7 -471 -9 -1267 -8 l-1231 3 -31 30 c-38 37 -54 92 -47
173 4 52 10 69 33 93 16 16 42 34 59 38 17 5 567 9 1267 8 l1237 -2 31 -30z"/>
<path d="M1650 3301 c0 -20 204 -281 220 -281 5 0 13 8 18 17 8 13 -11 43 -91
142 -56 69 -106 129 -111 133 -19 14 -36 8 -36 -11z"/>
<path d="M2312 2393 c-5 -10 -12 -73 -16 -141 -20 -371 -71 -600 -211 -953
-68 -171 -75 -199 -50 -199 22 0 38 31 108 210 125 318 170 511 197 850 6 74
10 159 8 189 -3 56 -20 76 -36 44z"/>
</g>
</svg>
