<?xml version="1.0" standalone="no"?>
<!DOCTYPE svg PUBLIC "-//W3C//DTD SVG 20010904//EN"
 "http://www.w3.org/TR/2001/REC-SVG-20010904/DTD/svg10.dtd">
<svg version="1.0" xmlns="http://www.w3.org/2000/svg"
 width="512.000000pt" height="512.000000pt" viewBox="0 0 512.000000 512.000000"
 preserveAspectRatio="xMidYMid meet">
<metadata>
Created by potrace 1.16, written by Peter Selinger 2001-2019
</metadata>
<g transform="translate(0.000000,512.000000) scale(0.100000,-0.100000)"
fill="#000000" stroke="none">
<path d="M2512 4698 c-8 -8 -12 -62 -12 -175 l0 -163 -183 0 c-192 0 -207 -3
-207 -45 0 -42 15 -45 207 -45 l183 0 2 -637 3 -638 40 0 40 0 3 638 2 637
173 0 c182 0 197 4 197 45 0 41 -15 45 -197 45 l-173 0 0 163 c0 171 -4 187
-45 187 -12 0 -26 -5 -33 -12z"/>
<path d="M1723 3990 c-104 -19 -200 -86 -243 -169 -27 -55 -43 -147 -36 -213
18 -151 93 -285 299 -530 l92 -109 90 5 c49 4 93 10 97 14 4 4 -35 57 -88 118
-170 194 -270 349 -288 446 -19 105 56 202 174 226 175 35 339 -58 529 -301
29 -37 57 -65 62 -61 5 3 9 40 9 82 0 74 -2 82 -52 177 -89 170 -196 257 -368
299 -84 20 -211 27 -277 16z m-37 -678 c5 -4 55 -64 111 -133 80 -99 99 -129
91 -142 -5 -9 -13 -17 -18 -17 -16 0 -220 261 -220 281 0 19 17 25 36 11z"/>
<path d="M3078 3970 c-181 -45 -282 -128 -372 -307 -32 -63 -36 -80 -36 -147
0 -41 4 -77 9 -80 5 -4 32 22 59 57 111 139 255 252 349 273 196 43 343 -36
343 -185 0 -108 -90 -253 -299 -486 -49 -55 -87 -103 -83 -106 4 -4 51 -9 104
-12 l96 -6 92 107 c214 249 290 396 290 562 0 175 -81 292 -231 334 -76 22
-224 20 -321 -4z"/>
<path d="M2090 2880 c-189 -9 -385 -27 -465 -43 l-60 -12 0 -45 0 -45 59 -12
c350 -69 1542 -69 1892 0 l59 12 0 45 0 45 -59 12 c-224 44 -942 65 -1426 43z"/>
<path d="M2164 2565 c-1 -5 -7 -75 -14 -155 -24 -320 -70 -617 -120 -785 -43
-141 -115 -320 -195 -480 -45 -91 -79 -167 -77 -170 10 -10 1581 -5 1587 5 3
5 -32 85 -78 177 -187 372 -258 643 -302 1138 -9 99 -19 201 -23 228 l-7 47
-384 3 c-249 1 -385 -2 -387 -8z m184 -216 c2 -30 -2 -115 -8 -189 -27 -339
-72 -532 -197 -850 -70 -179 -86 -210 -108 -210 -25 0 -18 28 50 199 140 353
191 582 211 953 4 68 11 131 16 141 16 32 33 12 36 -44z"/>
<path d="M1295 879 c-17 -4 -43 -22 -59 -38 -23 -24 -29 -41 -33 -93 -7 -81 9
-136 47 -173 l31 -30 1231 -3 c796 -1 1243 1 1267 8 20 5 50 23 65 39 23 24
29 41 33 93 7 81 -9 136 -47 173 l-31 30 -1237 2 c-700 1 -1250 -3 -1267 -8z"/>
</g>
</svg>
