<?xml version="1.0" standalone="no"?>
<!DOCTYPE svg PUBLIC "-//W3C//DTD SVG 20010904//EN"
 "http://www.w3.org/TR/2001/REC-SVG-20010904/DTD/svg10.dtd">
<svg version="1.0" xmlns="http://www.w3.org/2000/svg"
 width="512.000000pt" height="512.000000pt" viewBox="0 0 512.000000 512.000000"
 preserveAspectRatio="xMidYMid meet">
<metadata>
Created by potrace 1.16, written by Peter Selinger 2001-2019
</metadata>
<g transform="translate(0.000000,512.000000) scale(0.100000,-0.100000)"
fill="#000000" stroke="none">
<path d="M2525 4571 c-22 -10 -48 -27 -57 -37 -25 -29 -48 -89 -48 -126 0 -40
30 -106 57 -131 23 -20 24 -11 -23 -227 -37 -173 -70 -277 -108 -342 -25 -44
-82 -105 -90 -97 -2 2 -26 49 -53 104 -60 121 -90 209 -107 314 l-13 79 38 37
c45 44 63 92 56 151 -12 110 -124 185 -233 156 -25 -7 -56 -20 -69 -30 -87
-65 -99 -193 -25 -269 30 -30 30 -32 21 -94 -19 -121 -31 -157 -85 -238 -60
-90 -72 -100 -91 -75 -23 30 -87 139 -149 253 l-57 104 25 26 c57 60 70 139
34 211 -67 132 -249 132 -316 0 -26 -52 -28 -96 -7 -147 22 -52 43 -73 99 -98
l49 -22 182 -529 c100 -291 185 -538 189 -550 6 -19 0 -21 -81 -32 -196 -26
-203 -33 -203 -182 0 -109 0 -109 28 -123 56 -29 235 -55 485 -72 l98 -7 -6
-71 c-14 -165 -47 -482 -50 -487 -2 -3 -6 -30 -10 -60 -8 -71 -51 -266 -77
-350 -37 -120 -98 -263 -191 -447 l-91 -183 -174 0 c-109 0 -190 -5 -216 -12
-53 -16 -118 -81 -134 -134 -16 -53 -16 -185 0 -238 16 -53 81 -118 134 -134
60 -18 2508 -18 2568 0 53 16 118 81 134 134 6 23 12 76 12 119 0 102 -16 151
-65 200 -56 56 -94 65 -284 65 l-161 0 -108 218 c-210 424 -251 602 -315 1348
l-3 31 176 12 c218 15 372 37 428 61 l43 19 -3 118 -3 117 -31 18 c-17 10 -78
26 -136 35 l-104 18 225 556 226 556 40 11 c55 15 94 47 116 96 25 55 24 102
-3 156 -67 132 -249 132 -315 0 -13 -24 -23 -60 -23 -80 0 -33 24 -94 51 -131
9 -12 -3 -41 -62 -150 -80 -148 -127 -225 -172 -282 l-30 -39 -58 61 c-73 77
-106 145 -119 241 -18 140 -15 160 29 203 47 46 65 93 58 153 -12 110 -124
185 -233 156 -25 -7 -56 -20 -69 -30 -83 -62 -99 -190 -32 -262 23 -24 23 -30
15 -100 -5 -41 -18 -109 -29 -150 -23 -86 -109 -282 -124 -284 -14 -2 -81 137
-101 209 -9 33 -32 135 -52 227 l-36 168 22 23 c51 54 64 134 33 202 -22 48
-44 69 -94 90 -48 20 -93 19 -142 -4z m134 -106 c33 -32 32 -78 -2 -112 -72
-72 -189 32 -121 108 39 44 80 45 123 4z m557 -80 c46 -19 71 -73 52 -113 -7
-15 -30 -35 -50 -45 -33 -16 -40 -17 -73 -3 -47 20 -72 73 -53 114 7 15 29 35
48 44 42 21 33 21 76 3z m-1190 -30 c46 -19 71 -73 52 -113 -7 -15 -30 -35
-50 -45 -33 -16 -40 -17 -73 -3 -47 20 -72 73 -53 114 7 15 29 35 48 44 42 21
33 21 76 3z m1883 -30 c33 -32 32 -78 -2 -112 -72 -72 -189 32 -121 108 39 44
80 45 123 4z m-2460 -10 c50 -49 12 -138 -59 -138 -67 0 -108 85 -64 134 39
44 80 45 123 4z m1200 -235 c17 -80 33 -154 36 -165 2 -11 8 -33 11 -50 4 -16
11 -41 17 -55 5 -14 11 -31 13 -39 1 -7 18 -45 37 -85 72 -146 174 -215 344
-232 32 -3 68 -7 81 -8 42 -5 131 14 188 39 33 14 82 50 120 87 59 56 65 60
58 34 -10 -41 -241 -607 -252 -618 -6 -6 -77 -6 -186 1 -224 14 -870 14 -1085
0 -132 -8 -167 -7 -177 3 -13 13 -234 647 -234 670 0 7 29 -19 64 -57 67 -74
128 -113 216 -139 144 -43 365 8 462 106 34 34 113 158 108 170 -1 2 4 17 10
33 18 45 76 280 90 365 13 76 27 107 41 93 4 -4 21 -73 38 -153z m534 -52 c3
-51 8 -100 10 -108 2 -8 7 -30 11 -49 15 -62 67 -149 126 -209 66 -68 65 -73
-15 -109 -89 -39 -332 -8 -329 42 1 11 25 70 53 132 55 122 87 225 97 318 6
59 19 89 34 80 4 -2 10 -46 13 -97z m-1193 58 c0 -2 7 -42 15 -89 18 -105 53
-202 116 -329 61 -122 60 -123 -95 -123 -120 0 -141 7 -218 67 l-38 30 56 71
c31 39 64 87 74 107 23 45 57 161 65 223 3 26 10 47 16 47 5 0 9 -2 9 -4z
m1035 -1206 c230 -11 406 -27 491 -43 l59 -12 0 -45 0 -45 -59 -12 c-350 -69
-1542 -69 -1892 0 l-59 12 0 45 0 45 60 12 c223 44 930 66 1400 43z m-83 -357
c4 -27 14 -129 23 -228 44 -495 115 -766 302 -1138 46 -92 81 -172 78 -177 -6
-10 -1577 -15 -1587 -5 -2 3 32 79 77 170 80 160 152 339 195 480 50 168 96
465 120 785 7 80 13 150 14 155 2 6 138 9 387 8 l384 -3 7 -47z m888 -1668
c38 -37 54 -92 47 -173 -4 -52 -10 -69 -33 -93 -15 -16 -45 -34 -65 -39 -24
-7 -471 -9 -1267 -8 l-1231 3 -31 30 c-38 37 -54 92 -47 173 4 52 10 69 33 93
16 16 42 34 59 38 17 5 567 9 1267 8 l1237 -2 31 -30z"/>
<path d="M1773 3434 c-3 -8 20 -77 52 -152 32 -75 63 -149 69 -164 10 -28 39
-37 51 -18 6 10 -103 282 -131 328 -17 26 -32 28 -41 6z"/>
<path d="M2312 2393 c-5 -10 -12 -73 -16 -141 -20 -371 -71 -600 -211 -953
-68 -171 -75 -199 -50 -199 22 0 38 31 108 210 125 318 170 511 197 850 6 74
10 159 8 189 -3 56 -20 76 -36 44z"/>
</g>
</svg>
