<?xml version="1.0" standalone="no"?>
<!DOCTYPE svg PUBLIC "-//W3C//DTD SVG 20010904//EN"
 "http://www.w3.org/TR/2001/REC-SVG-20010904/DTD/svg10.dtd">
<svg version="1.0" xmlns="http://www.w3.org/2000/svg"
 width="512.000000pt" height="512.000000pt" viewBox="0 0 512.000000 512.000000"
 preserveAspectRatio="xMidYMid meet">

<g transform="translate(0.000000,512.000000) scale(0.100000,-0.100000)"
fill="#000000" stroke="none">
<path d="M2575 4490 c-33 -13 -58 -48 -58 -81 0 -41 41 -82 83 -82 71 0 109
89 59 138 -29 28 -57 36 -84 25z"/>
<path d="M3140 4382 c-19 -9 -41 -29 -48 -44 -19 -41 6 -94 53 -114 33 -14 40
-13 73 3 20 10 43 30 50 45 19 40 -6 94 -52 113 -43 18 -34 18 -76 -3z"/>
<path d="M1950 4352 c-19 -9 -41 -29 -48 -44 -19 -41 6 -94 53 -114 33 -14 40
-13 73 3 20 10 43 30 50 45 19 40 -6 94 -52 113 -43 18 -34 18 -76 -3z"/>
<path d="M3825 4350 c-33 -13 -58 -48 -58 -81 0 -41 41 -82 83 -82 71 0 109
89 59 138 -29 28 -57 36 -84 25z"/>
<path d="M1365 4340 c-60 -24 -76 -93 -32 -137 51 -52 140 -16 140 57 0 52
-63 99 -108 80z"/>
<path d="M2593 4228 c-5 -7 -16 -47 -23 -88 -14 -85 -72 -320 -90 -365 -6 -16
-11 -31 -10 -33 5 -12 -74 -136 -108 -170 -97 -98 -318 -149 -462 -106 -88 26
-149 65 -216 139 -35 38 -64 64 -64 57 0 -23 221 -657 234 -670 10 -10 45 -11
177 -3 215 14 861 14 1085 0 109 -7 180 -7 186 -1 11 11 242 577 252 618 7 26
1 22 -58 -34 -38 -37 -87 -73 -120 -87 -57 -25 -146 -44 -188 -39 -13 1 -49 5
-81 8 -170 17 -272 86 -344 232 -19 40 -36 78 -37 85 -2 8 -8 25 -13 39 -6 14
-13 39 -17 55 -3 17 -9 39 -11 50 -3 11 -19 85 -36 165 -17 80 -34 149 -38
153 -5 4 -12 2 -18 -5z m-779 -800 c28 -46 137 -318 131 -328 -12 -19 -41 -10
-51 18 -6 15 -37 89 -69 164 -53 126 -62 168 -36 168 6 0 17 -10 25 -22z"/>
<path d="M3152 4117 c-6 -6 -13 -39 -16 -72 -10 -93 -42 -196 -97 -318 -28
-62 -52 -121 -53 -132 -3 -50 240 -81 329 -42 80 36 81 41 15 109 -59 60 -111
147 -126 209 -4 19 -9 41 -11 49 -2 8 -7 57 -10 108 -6 93 -12 112 -31 89z"/>
<path d="M1965 4043 c-8 -62 -42 -178 -65 -223 -10 -20 -43 -68 -74 -107 l-56
-71 38 -30 c77 -60 98 -67 218 -67 155 0 156 1 95 123 -63 127 -98 224 -116
329 -8 47 -15 87 -15 89 0 2 -4 4 -9 4 -6 0 -13 -21 -16 -47z"/>
<path d="M2090 2880 c-189 -9 -385 -27 -465 -43 l-60 -12 0 -45 0 -45 59 -12
c350 -69 1542 -69 1892 0 l59 12 0 45 0 45 -59 12 c-224 44 -942 65 -1426 43z"/>
<path d="M2164 2565 c-1 -5 -7 -75 -14 -155 -24 -320 -70 -617 -120 -785 -43
-141 -115 -320 -195 -480 -45 -91 -79 -167 -77 -170 10 -10 1581 -5 1587 5 3
5 -32 85 -78 177 -187 372 -258 643 -302 1138 -9 99 -19 201 -23 228 l-7 47
-384 3 c-249 1 -385 -2 -387 -8z m184 -216 c2 -30 -2 -115 -8 -189 -27 -339
-72 -532 -197 -850 -70 -179 -86 -210 -108 -210 -25 0 -18 28 50 199 140 353
191 582 211 953 4 68 11 131 16 141 16 32 33 12 36 -44z"/>
<path d="M1295 879 c-17 -4 -43 -22 -59 -38 -23 -24 -29 -41 -33 -93 -7 -81 9
-136 47 -173 l31 -30 1231 -3 c796 -1 1243 1 1267 8 20 5 50 23 65 39 23 24
29 41 33 93 7 81 -9 136 -47 173 l-31 30 -1237 2 c-700 1 -1250 -3 -1267 -8z"/>
</g>
</svg>
